<?xml version="1.0" encoding="utf-8"?>
<?xml-stylesheet type="text/xsl" href="rss1.xsl"?>
<rss version="2.0" xmlns:atom="http://www.w3.org/2005/Atom" xmlns:content="http://purl.org/rss/1.0/modules/content/" xmlns:dc="http://purl.org/dc/elements/1.1/" xmlns:media="http://search.yahoo.com/mrss/">
<channel>
 <title>Getty</title>
 <link>http://www.gettyimg.com/</link>
 <atom:link href="http://www.gettyimg.com/" rel="self" type="application/rss+xml" />

 
                <item>
                <title><![CDATA[【UPSCALED】LE SSERAFIM - EASY |HDR/SDR 60P[AI] FLAC]]></title>
                <link><![CDATA[https://sharemania.us/threads/le-sserafim-easy-hdr-sdr-60p-ai-flac.238134/]]></link>
                <description><![CDATA[<article>
<blockquote class="messageText SelectQuoteContainer ugc baseHtml">
<div style="text-align: center"><i><b><span style="font-size: 18px">AI enhanced to 60fps and Upsacle, I personally make HDR. <br>
For devices that don't support HDR, I also exported SDR</span></b><br>
<span style="text-decoration: underline">A lot of problems have been improved and the picture is more natural.(Compared to previous AI)</span></i>​</div><br>
<div style="text-align: center"><br>
<i>Flac from:</i><a href="https://sharemania.us/members/ricardorihyun.177622/" class="internalLink">ricardorihyun</a> big thanks(Also thanks to other members who shared flac)<br>
<div class="ToggleTriggerAnchor bbCodeSpoilerContainer">
<button type="button" class="button bbCodeSpoilerButton ToggleTrigger Tooltip JsOnly" data-target="> .SpoilerTarget"><span>Spoiler: <span class="SpoilerTitle">HDR Mediainfo</span></span></button>
<div class="SpoilerTarget bbCodeSpoilerText">Format : MPEG-4<br>
Format profile : QuickTime<br>
Codec ID : qt 0000.02 (qt )<br>
File size : 3.10 GiB<br>
Duration : 3 min 9 s<br>
Overall bit rate : 141 Mb/s<br>
Frame rate : 60.000 FPS<br>
Encoded date : 2024-02-19 18:17:57 UTC<br>
Tagged date : 2024-02-19 18:17:57 UTC<br>
Writing application : Blackmagic Design DaVinci Resolve Studio<br>
Video<br>
ID : 1<br>
Format : HEVC<br>
Format/Info : High Efficiency Video Coding<br>
Format profile : Main 10@L5.1@High<br>
Codec ID : hvc1<br>
Codec ID/Info : High Efficiency Video Coding<br>
Duration : 3 min 9 s<br>
Bit rate : 139 Mb/s<br>
Width : 3 840 pixels<br>
Height : 2 160 pixels<br>
Display aspect ratio : 16:9<br>
Frame rate mode : Constant<br>
Frame rate : 60.000 FPS<br>
Color space : YUV<br>
Chroma subsampling : 4:2:0<br>
Bit depth : 10 bits<br>
Scan type : Progressive<br>
Bits/(Pixel*Frame) : 0.280<br>
Stream size : 3.07 GiB (99%)<br>
Encoded date : 2024-02-19 18:17:57 UTC<br>
Tagged date : 2024-02-19 18:17:57 UTC<br>
Color range : Limited<br>
Color primaries : BT.2020<br>
Transfer characteristics : PQ<br>
Matrix coefficients : BT.2020 non-constant<br>
Codec configuration box : hvcC<br>
Audio<br>
ID : 2<br>
Format : PCM<br>
Format settings : Little / Signed<br>
Codec ID : lpcm<br>
Duration : 3 min 9 s<br>
Bit rate mode : Constant<br>
Bit rate : 1 411.2 kb/s<br>
Channel(s) : 2 channels<br>
Channel layout : L R<br>
Sampling rate : 44.1 kHz<br>
Bit depth : 16 bits<br>
Stream size : 31.9 MiB (1%)<br>
Default : Yes<br>
Alternate group : 1<br>
Encoded date : 2024-02-19 18:17:57 UTC<br>
Tagged date : 2024-02-19 18:17:57 UTC</div>
</div><br>
<div class="ToggleTriggerAnchor bbCodeSpoilerContainer">
<button type="button" class="button bbCodeSpoilerButton ToggleTrigger Tooltip JsOnly" data-target="> .SpoilerTarget"><span>Spoiler: <span class="SpoilerTitle">SDR Mediainfo</span></span></button>
<div class="SpoilerTarget bbCodeSpoilerText">Format : MPEG-4<br>
Format profile : QuickTime<br>
Codec ID : qt 0000.02 (qt )<br>
File size : 3.12 GiB<br>
Duration : 3 min 9 s<br>
Overall bit rate : 141 Mb/s<br>
Frame rate : 60.000 FPS<br>
Encoded date : 2024-02-19 18:36:58 UTC<br>
Tagged date : 2024-02-19 18:36:58 UTC<br>
Writing application : Blackmagic Design DaVinci Resolve Studio<br>
Video<br>
ID : 1<br>
Format : HEVC<br>
Format/Info : High Efficiency Video Coding<br>
Format profile : Main 10@L5.1@High<br>
Codec ID : hvc1<br>
Codec ID/Info : High Efficiency Video Coding<br>
Duration : 3 min 9 s<br>
Bit rate : 140 Mb/s<br>
Width : 3 840 pixels<br>
Height : 2 160 pixels<br>
Display aspect ratio : 16:9<br>
Frame rate mode : Constant<br>
Frame rate : 60.000 FPS<br>
Color space : YUV<br>
Chroma subsampling : 4:2:0<br>
Bit depth : 10 bits<br>
Scan type : Progressive<br>
Bits/(Pixel*Frame) : 0.281<br>
Stream size : 3.09 GiB (99%)<br>
Encoded date : 2024-02-19 18:36:58 UTC<br>
Tagged date : 2024-02-19 18:36:58 UTC<br>
Color range : Limited<br>
Color primaries : BT.709<br>
Matrix coefficients : BT.709<br>
Gamma : 2.400<br>
Codec configuration box : hvcC<br>
Audio<br>
ID : 2<br>
Format : PCM<br>
Format settings : Little / Signed<br>
Codec ID : lpcm<br>
Duration : 3 min 9 s<br>
Bit rate mode : Constant<br>
Bit rate : 1 411.2 kb/s<br>
Channel(s) : 2 channels<br>
Channel layout : L R<br>
Sampling rate : 44.1 kHz<br>
Bit depth : 16 bits<br>
Stream size : 31.9 MiB (1%)<br>
Default : Yes<br>
Alternate group : 1<br>
Encoded date : 2024-02-19 18:36:58 UTC<br>
Tagged date : 2024-02-19 18:36:58 UTC</div>
</div></div><i>Compare(SDR):</i><br>
<br>
<div style="text-align: center"><i>Youtube web </i><br>
<img src="https://i.vgy.me/Oy1wqh.png" class="bbCodeImage LbImage" alt="[​IMG]" data-url="https://i.vgy.me/Oy1wqh.png" style=""> <br>
<br>
<br>
Before Upscale<br>
<img src="https://i.vgy.me/RIFHmt.png" class="bbCodeImage LbImage" alt="[​IMG]" data-url="https://i.vgy.me/RIFHmt.png" style=""><br>
After Upscale <br>
<img src="https://i.vgy.me/lcpwN4.png" class="bbCodeImage LbImage" alt="[​IMG]" data-url="https://i.vgy.me/lcpwN4.png" style=""> <br>
<i><i>HEVC 420 10bit.<br>
<i><i>Mac player: quicktime,infuse<br>
<i>Window player: potplayer,mpv</i></i></i></i></i><br>
<i><i><i><i><i><br>
Note: Due to the use of AI enhancement to 60P and Upscale, Some video images will inevitably have imperfections</i></i></i></i></i><br>
<br>
HDR<br>
<div class="bbCodeBlock bbCodeVfcHH HiddenContent">
<div class="attribution type">Hidden Content:</div>
<blockquote>You must reply before you can see the hidden data contained here.</blockquote>
</div>SDR<br>
<div class="bbCodeBlock bbCodeVfcHH HiddenContent">
<div class="attribution type">Hidden Content:</div>
<blockquote>You must reply before you can see the hidden data contained here.</blockquote>
</div></div>
<div class="messageTextEndMarker">&nbsp;</div>
</blockquote>
</article>]]></description>
                <author><![CDATA[pcyiiu]]></author>
                </item>

                </channel></rss>